<mxfile host="app.diagrams.net" agent="Mozilla/5.0 (Windows NT 10.0; Win64; x64) AppleWebKit/537.36 (KHTML, like Gecko) Chrome/138.0.0.0 Safari/537.36 Edg/138.0.0.0" version="28.0.7">
  <diagram name="Page-1" id="G5lrGxndNdH-5OUGlC53">
    <mxGraphModel dx="2545" dy="857" grid="1" gridSize="10" guides="1" tooltips="1" connect="1" arrows="1" fold="1" page="1" pageScale="1" pageWidth="850" pageHeight="1100" math="0" shadow="0">
      <root>
        <mxCell id="0" />
        <mxCell id="1" parent="0" />
        <mxCell id="Er_8kEUyG0-HucFB_yVs-1" value="" style="whiteSpace=wrap;html=1;aspect=fixed;" parent="1" vertex="1">
          <mxGeometry x="300" y="295" width="840" height="840" as="geometry" />
        </mxCell>
        <mxCell id="Er_8kEUyG0-HucFB_yVs-2" value="&lt;b&gt;&lt;font style=&quot;font-size: 14px;&quot;&gt;AWS Cloud&lt;/font&gt;&lt;/b&gt;" style="text;html=1;align=center;verticalAlign=middle;whiteSpace=wrap;rounded=0;" parent="1" vertex="1">
          <mxGeometry x="350" y="280" width="100" height="90" as="geometry" />
        </mxCell>
        <mxCell id="Er_8kEUyG0-HucFB_yVs-3" value="" style="whiteSpace=wrap;html=1;aspect=fixed;" parent="1" vertex="1">
          <mxGeometry x="360" y="365" width="710" height="710" as="geometry" />
        </mxCell>
        <mxCell id="Er_8kEUyG0-HucFB_yVs-5" value="&lt;b&gt;&lt;font style=&quot;font-size: 14px;&quot;&gt;US East-1&lt;/font&gt;&lt;/b&gt;" style="text;html=1;align=center;verticalAlign=middle;whiteSpace=wrap;rounded=0;" parent="1" vertex="1">
          <mxGeometry x="400" y="355" width="100" height="90" as="geometry" />
        </mxCell>
        <mxCell id="Er_8kEUyG0-HucFB_yVs-6" value="" style="whiteSpace=wrap;html=1;aspect=fixed;" parent="1" vertex="1">
          <mxGeometry x="430" y="435" width="595" height="595" as="geometry" />
        </mxCell>
        <mxCell id="Er_8kEUyG0-HucFB_yVs-7" style="edgeStyle=orthogonalEdgeStyle;rounded=0;orthogonalLoop=1;jettySize=auto;html=1;entryX=0.5;entryY=0;entryDx=0;entryDy=0;startArrow=classic;startFill=1;" parent="1" source="Er_8kEUyG0-HucFB_yVs-9" target="Er_8kEUyG0-HucFB_yVs-13" edge="1">
          <mxGeometry relative="1" as="geometry" />
        </mxCell>
        <mxCell id="Er_8kEUyG0-HucFB_yVs-8" value="Configure Jobs" style="edgeLabel;html=1;align=center;verticalAlign=middle;resizable=0;points=[];" parent="Er_8kEUyG0-HucFB_yVs-7" vertex="1" connectable="0">
          <mxGeometry x="-0.3015" relative="1" as="geometry">
            <mxPoint as="offset" />
          </mxGeometry>
        </mxCell>
        <mxCell id="Er_8kEUyG0-HucFB_yVs-25" style="edgeStyle=orthogonalEdgeStyle;rounded=0;orthogonalLoop=1;jettySize=auto;html=1;" parent="1" source="Er_8kEUyG0-HucFB_yVs-9" target="Er_8kEUyG0-HucFB_yVs-22" edge="1">
          <mxGeometry relative="1" as="geometry" />
        </mxCell>
        <mxCell id="Er_8kEUyG0-HucFB_yVs-9" value="&lt;font style=&quot;font-size: 17px;&quot;&gt;ECS&lt;/font&gt;&lt;div&gt;&lt;font style=&quot;font-size: 17px;&quot;&gt;&lt;br&gt;&lt;/font&gt;&lt;/div&gt;&lt;div&gt;&lt;font style=&quot;font-size: 17px;&quot;&gt;&lt;br&gt;&lt;/font&gt;&lt;/div&gt;&lt;div&gt;&lt;font style=&quot;font-size: 17px;&quot;&gt;&lt;br&gt;&lt;/font&gt;&lt;/div&gt;&lt;div&gt;&lt;font style=&quot;font-size: 17px;&quot;&gt;&lt;br&gt;&lt;/font&gt;&lt;/div&gt;" style="rounded=0;whiteSpace=wrap;html=1;" parent="1" vertex="1">
          <mxGeometry x="510" y="520" width="170" height="170" as="geometry" />
        </mxCell>
        <mxCell id="Er_8kEUyG0-HucFB_yVs-10" style="edgeStyle=orthogonalEdgeStyle;rounded=0;orthogonalLoop=1;jettySize=auto;html=1;exitX=1;exitY=0.5;exitDx=0;exitDy=0;entryX=0.5;entryY=1;entryDx=0;entryDy=0;startArrow=classic;startFill=1;" parent="1" source="Er_8kEUyG0-HucFB_yVs-12" target="Er_8kEUyG0-HucFB_yVs-13" edge="1">
          <mxGeometry relative="1" as="geometry" />
        </mxCell>
        <mxCell id="Er_8kEUyG0-HucFB_yVs-11" value="Execute Job" style="edgeLabel;html=1;align=center;verticalAlign=middle;resizable=0;points=[];" parent="Er_8kEUyG0-HucFB_yVs-10" vertex="1" connectable="0">
          <mxGeometry x="-0.4522" y="-6" relative="1" as="geometry">
            <mxPoint as="offset" />
          </mxGeometry>
        </mxCell>
        <mxCell id="Er_8kEUyG0-HucFB_yVs-12" value="&lt;font style=&quot;font-size: 17px;&quot;&gt;ECS&lt;/font&gt;&lt;div&gt;&lt;span style=&quot;font-size: 17px;&quot;&gt;&lt;br&gt;&lt;/span&gt;&lt;div&gt;&lt;font style=&quot;font-size: 17px;&quot;&gt;&lt;br&gt;&lt;/font&gt;&lt;/div&gt;&lt;div&gt;&lt;font style=&quot;font-size: 17px;&quot;&gt;&lt;br&gt;&lt;/font&gt;&lt;/div&gt;&lt;div&gt;&lt;font style=&quot;font-size: 17px;&quot;&gt;&lt;br&gt;&lt;/font&gt;&lt;/div&gt;&lt;div&gt;&lt;font style=&quot;font-size: 17px;&quot;&gt;&lt;span style=&quot;color: rgba(0, 0, 0, 0); font-family: monospace; font-size: 0px; text-align: start; text-wrap-mode: nowrap;&quot;&gt;%3CmxGraphModel%3E%3Croot%3E%3CmxCell%20id%3D%220%22%2F%3E%3CmxCell%20id%3D%221%22%20parent%3D%220%22%2F%3E%3CmxCell%20id%3D%222%22%20value%3D%22Load%20Dashboard%22%20style%3D%22rounded%3D0%3BwhiteSpace%3Dwrap%3Bhtml%3D1%3B%22%20vertex%3D%221%22%20parent%3D%221%22%3E%3CmxGeometry%20x%3D%221370%22%20y%3D%22335%22%20width%3D%22140%22%20height%3D%2250%22%20as%3D%22geometry%22%2F%3E%3C%2FmxCell%3E%3C%2Froot%3E%3C%2FmxGraphModel%3E&lt;/span&gt;&lt;/font&gt;&lt;/div&gt;&lt;/div&gt;" style="rounded=0;whiteSpace=wrap;html=1;" parent="1" vertex="1">
          <mxGeometry x="510" y="795" width="200" height="170" as="geometry" />
        </mxCell>
        <mxCell id="Er_8kEUyG0-HucFB_yVs-13" value="DynamoDB" style="rounded=0;whiteSpace=wrap;html=1;" parent="1" vertex="1">
          <mxGeometry x="780" y="655" width="170" height="100" as="geometry" />
        </mxCell>
        <mxCell id="Er_8kEUyG0-HucFB_yVs-14" value="" style="shape=image;verticalLabelPosition=bottom;labelBackgroundColor=default;verticalAlign=top;aspect=fixed;imageAspect=0;image=data:image/png,iVBORw0KGgoAAAANSUhEUgAAAGAAAABcCAIAAAAeQie5AAAGVUlEQVR4Ae2a+UsbQRTH+w8uFDRKPFKjeDSKihJNVPAOS9AqxoiltSKIZzwQFVGjeB9F0DRoVIwSbY0/1Bpt1ICwLQw+tql1ZjaTuIXZX5zse/Pe93327TXuK4FvzxJ49ayVGwUOCNMEHBAHhCGAMfMO4oAwBDBm3kEcEIYAxsw7iAPCEMCYeQdxQBgCGDPvIA4IQwBj5h3EAWEIYMy8gzggDAGMmXcQB4QhgDHzDuKAMAQw5ph2kFarFUXR6XS6HrfNzc3Z2dmRkRGbzZaUlIQR+xLmGAGyWq27u7sSbnO73Xa7/SU4/DNn1AHZbLaLiwscmT/sfr+/sbHxn5Jja4gioOzs7IODgz9Kl6T9/f2RkRG73V5VVWU2m2tra+12++Dg4OHhYZiny+VKTEyMLY0nskULUFFR0fX1NdT87du39vZ2rVb7hITHXWlpaQ6HIxQKwazT09OMjIxH+8v8jQogk8l0d3cHdY6NjZEXp9Pp5ubmYO7V1VVDQwP5dOae7AHl5ube39+jCn83UWVlpQLRFovl58+fgKmmpkZBECZTGAPSaDR+vx8VdnFxkZ6erlhlVlYWXN0DgcBLPQQwBjQ1NYXofP/+PfLLh06nOzs7QwEdDodi1pFMZAnIZDLBSWEymSKRBXMNBgO6bIdCoTdv3sD+mA1YAjo6OkKAxsfHGRbQ1taGwu7s7EBYURS3t7d//Phxe3vr8XgGBgbevn0LVoYDZoDKy8uhfXQ6HUOJgiB8+fIFBV9aWhJF8e+HJmTt6upim1cQ2H1ANT8/j1ROTk4yV5mXlwf0nx/MzMywzc6sg4LBIJKemprKViKKNj09LUfj8Xiampr0en1SUlJ9fb3b7QZrb28vQwFsAJWWliJ9e3t7DMXJQ+Xk5ACC/v5+uQmNnU4nOBQXF//toGwPG0Dv379H4qJxfkFh09PTwWDw48ePsCds8PnzZ+bHiQ2gsbExpKy7uztMdCx/ZmRkPDw8ICWFhYVMUrMBtLi4iGR9+vSJiSzFQeBe0dPToziIfCIbQDMzMwjQhw8f5NFjPzYajUjJxsYGk+yMAalhPRC9Kl9eXloslucXWEgIRgqoubn55OQEHTRJkurq6kiyRtUn7DFyY2OjvLxccUblgEpLS30+H6CRJCkYDEby+q64hrCJQ0NDclVovL6+rtfrwzxJfioE1NLSIhexvb1ttVpJ8sXG5927d0NDQzs7O+fn56Dz+vq6pKSEVoASQDabDbL6/f7q6mrarLH0NxqNsPgbCoVonyGpARUVFQGdhYWFWJaqOFd+fv7V1RWSHQgEqN6l6QDFxcVB0zJ/LVRcP8nErKysy8tLxGhpaYlkCvKhA9Td3Y1yuFwu8hwq8SwrK4PeJz/RKABptVp4ZTcYDCopm0rG5OQkYrS2tkY4kQKQ1Wr9f9sH4ZAvCWg0GhJGFIBgQb6zs5MktDp9vF4vOsyiKJIopAAET8ysXpRJ9DH3gcfI4eFhkuAUgOBOSdicJOlj79Pa2oo6aHl5mSQ7BSAUV5Ikkriq9amsrESFHB4ekoikAATPo2r46IKktid9ampqEKDd3d0nHcJ2UgDa399HoY1GY1iU/+hnc3MzqmJlZYVENgUguIu1t7eThFanj8PhQIBGR0dJFFIAamxsRKGPj49JQqvT5+vXr6iKiooKEoUUgFJTU1FoSZIiWYIikRUlH3jTvrm5IUxBAUgQBDjLfD7f69evCXOoxw3+hT04OEioig6QXq+HT+QGBgYIc6jEzWKxoDMgGAyS34jpAAmC0NHRASdaX1+fSorHyjCZTHBoOzo6sP7gQA3o98ytrS1gtLq6mpKSAuHUORBFEb6ZnJ2dpRKpBFB8fDw8E6G1+q6ursi/J6PSTeKckJBQX18vP5ybm5skE+U+SgAJgqDRaGBtBbrJ6/W61LG53W74vhHkkV+YGQBCIcxms8fjAQWqHfh8PsX/WVDYQXLGRqNxYmIiEAioDZDX63U6nYTrPvKK5GMGgCBcSkpKQUGBOQpbcXFxQUGBwWDIzMxMS0tLTk5OSEiAvFEdsAQUVaEvFZwDwpDngDggDAGMmXcQB4QhgDHzDuKAMAQwZt5BHBCGAMbMO4gDwhDAmHkHcUAYAhgz7yAOCEMAY+YdxAFhCGDMvIM4IAwBjJl3EAeEIYAx/wLPLo7KIOA9OQAAAABJRU5ErkJggg==;" parent="1" vertex="1">
          <mxGeometry x="300" y="295" width="52.17" height="50" as="geometry" />
        </mxCell>
        <mxCell id="Er_8kEUyG0-HucFB_yVs-15" value="" style="shape=image;verticalLabelPosition=bottom;labelBackgroundColor=default;verticalAlign=top;aspect=fixed;imageAspect=0;image=data:image/png,iVBORw0KGgoAAAANSUhEUgAAAGQAAABgCAIAAABkEUAVAAAD8ElEQVR4Ae3bz0vjQBwF8P0HJ5RiRFT01EsR4kVxIeChFLyJ0JNaRMSiiOBFbyJCL0qjUgSxICgURCpFhFIi2NmFWYZCUps320ni+M1B2smLnXx4k/6w/mK0RRDwPI9z/itCkiKMsIASEBZhAQJAlJpFWIAAEKVmERYgAESpWYQFCABR7c1yXbdcLpdKpbm5OWBeqYxeX1/rertj2/bFxQXv28rlcioRok5KI9bp6Wkf1L+bhUIh6tTSl9O1DCcmJqTU4eFhtVoVd+/u7tKHEHVGupq1uLgodDzPE3MRd33fjzq19OV0YeXzeaHz+vrqOM7a2pq4+/b2lj6EqDO6ubnRcoG3LKvZbAqg/p9HR0dRp5a+nK5rFmNsaWmp2+32Sz09Pdm2nT6EqDPStQzF409NTV1eXgqv8/PzsbGxqPNKZe7q6krLMpQnW6lUBNbGxoYc/KY3NC5DIUJYQDMk1vHx8e+kt4WFBWDqgajeaxZjTGL1X+mTur26uhoQAAbiW4ZJAcnHPTk5AWDCovFhPT8/1+PdHh8fpdTt7W3Y6WNj8S3DmJ8NM5nM/f29wGq1WpOTkxhMWDq+ZsWMJT/z8H1/VB+lmYm1vr4uF2CxWAxricqYgViu635+fgqsg4MDFZUBx5iGlcvlOp2OkKrVapZlDThxlWGjsGzblh91NJvNkb9pNwfLsqxarSY61el0crmcSnm+PMYcrP39fSHV6/Vc1/3yrBV3GoJVLBaFFOd8a2tLEWPYYfFhbW5uDpuM+v7393eB9fLyov5bhh1pyOdZhUKh1+sJr93d3WFnrbg/vmbpfgW/s7MjV6Kmv06ag8UYk3+d9H3fcRzF/gw+zCisbDb78PAg+tVut6enpwefuMoeo7AYYzMzM+12W3g1Go1sNquiMuAY07AYY47jfHx8CK9qtTrgxFWGDcRijK2srMiL/fb2tgpM2DFmYjHG9vb2hNfflxTLy8th5w6PGYtlWZb8dli3283n87BN4ID4sOS6SORGq9X6/yfHn4LFOW80GplMJlAXYOAHYXHOz87OAJtAND4s3W93Aqc2+gHCAkwJi7AAASBKzSIsQACIUrMICxAAotQswgIEgCg1i7AAASBKzSIsQACIUrMICxAAotQswgIEgCg1i7AAASBKzSIsQACIUrMICxAAotQswgIEgCg1i7AAASBKzSIsQACIUrMSwpqfn68Etnq9Lr7q53leYGdlfHwcmGzS0VH+706pVEK/Ajk7O5u0APD4o1yGhAXAhy7D4NLrH/m5yxBw/Z7RUS7D7ykAzJqwCAsQAKLULMICBIAoNYuwAAEgSs0iLEAAiFKzCAsQAKLULBjrDxBYI8cWJnyFAAAAAElFTkSuQmCC;" parent="1" vertex="1">
          <mxGeometry x="360" y="365" width="52.08" height="50" as="geometry" />
        </mxCell>
        <mxCell id="Er_8kEUyG0-HucFB_yVs-16" value="Scheduler Configuration" style="rounded=0;whiteSpace=wrap;html=1;" parent="1" vertex="1">
          <mxGeometry x="525" y="630" width="140" height="50" as="geometry" />
        </mxCell>
        <mxCell id="Er_8kEUyG0-HucFB_yVs-18" style="edgeStyle=orthogonalEdgeStyle;rounded=0;orthogonalLoop=1;jettySize=auto;html=1;entryX=0;entryY=0.5;entryDx=0;entryDy=0;exitX=0.5;exitY=1;exitDx=0;exitDy=0;" parent="1" source="Er_8kEUyG0-HucFB_yVs-19" target="Er_8kEUyG0-HucFB_yVs-20" edge="1">
          <mxGeometry relative="1" as="geometry" />
        </mxCell>
        <mxCell id="Er_8kEUyG0-HucFB_yVs-19" value="&lt;div&gt;&amp;nbsp;Scheduler Executor&lt;/div&gt;" style="rounded=0;whiteSpace=wrap;html=1;" parent="1" vertex="1">
          <mxGeometry x="530" y="875" width="140" height="40" as="geometry" />
        </mxCell>
        <mxCell id="Er_8kEUyG0-HucFB_yVs-20" value="eSNAP Endpoint" style="rounded=0;whiteSpace=wrap;html=1;" parent="1" vertex="1">
          <mxGeometry x="840" y="915" width="100" height="40" as="geometry" />
        </mxCell>
        <mxCell id="Er_8kEUyG0-HucFB_yVs-21" value="&lt;b&gt;&lt;font style=&quot;font-size: 14px;&quot;&gt;eSNAP&lt;/font&gt;&lt;/b&gt;" style="text;html=1;align=center;verticalAlign=middle;whiteSpace=wrap;rounded=0;" parent="1" vertex="1">
          <mxGeometry x="425" y="430" width="100" height="90" as="geometry" />
        </mxCell>
        <mxCell id="Er_8kEUyG0-HucFB_yVs-22" value="" style="rounded=0;whiteSpace=wrap;html=1;" parent="1" vertex="1">
          <mxGeometry x="-70" y="550" width="200" height="265" as="geometry" />
        </mxCell>
        <mxCell id="Er_8kEUyG0-HucFB_yVs-23" value="Load Dashboard" style="rounded=0;whiteSpace=wrap;html=1;" parent="1" vertex="1">
          <mxGeometry x="-40" y="640" width="140" height="50" as="geometry" />
        </mxCell>
        <mxCell id="Er_8kEUyG0-HucFB_yVs-24" value="&lt;b&gt;&lt;font style=&quot;font-size: 14px;&quot;&gt;User&lt;/font&gt;&lt;/b&gt;" style="text;html=1;align=center;verticalAlign=middle;whiteSpace=wrap;rounded=0;" parent="1" vertex="1">
          <mxGeometry x="-90" y="530" width="100" height="90" as="geometry" />
        </mxCell>
      </root>
    </mxGraphModel>
  </diagram>
</mxfile>
